<svg width="48" height="417" viewBox="0 0 48 417" fill="none" xmlns="http://www.w3.org/2000/svg">
<path d="M28.5538 21.1825C27.11 21.1825 16.6176 20.9946 15.7672 20.6188C14.9266 20.2331 14.3135 19.6398 13.9278 18.8387C13.552 18.0377 13.3344 16.9994 13.2751 15.7237C13.2652 15.2589 13.2652 14.804 13.2751 14.359C13.285 13.9041 13.3245 13.4986 13.3938 13.1426H17.3395C17.3099 13.558 17.2851 13.9634 17.2654 14.359C17.2555 14.7545 17.2555 15.1353 17.2654 15.5012C17.2752 15.8671 17.3 16.2082 17.3395 16.5247C17.389 16.9203 17.562 17.2268 17.8587 17.4444C18.1653 17.6619 27.9605 17.7707 28.5538 17.7707C29.1669 17.7707 29.607 17.6619 29.874 17.4444C30.141 17.2169 30.3042 16.8906 30.3635 16.4654C30.4229 16.05 30.4476 15.6396 30.4377 15.2342C30.4377 14.8188 30.413 14.4579 30.3635 14.1513C30.324 13.8052 30.2004 13.4986 29.9927 13.2316C29.7949 12.9547 29.4438 12.7569 28.9395 12.6383L17.2209 12.1043C16.2221 11.8768 15.4309 11.5406 14.8475 11.0956C14.264 10.6407 13.8437 10.0819 13.5866 9.41937C13.3295 8.74691 13.1861 7.97062 13.1564 7.09049C13.1465 6.74437 13.1416 6.45264 13.1416 6.2153C13.1416 5.96807 13.1465 5.70601 13.1564 5.42912C13.2158 4.13365 13.4432 3.09034 13.8388 2.29922C14.2442 1.4982 14.8771 0.914742 15.7375 0.548846C16.6077 0.182949 27.11 0 28.5538 0C30.5712 0 32.0397 0.420287 32.9594 1.26086C33.889 2.09155 34.3983 3.48096 34.4873 5.42912C34.4972 5.58734 34.4972 5.86424 34.4873 6.2598C34.4873 6.65537 34.4774 7.04104 34.4576 7.41683C34.4477 7.78272 34.4378 8.01017 34.4279 8.09918H30.3932C30.413 7.61461 30.4229 7.18443 30.4229 6.80865C30.4328 6.43286 30.4328 6.07191 30.4229 5.72579C30.4229 5.37967 30.413 5.01378 30.3932 4.6281C30.3833 4.24242 30.2201 3.94575 29.9037 3.73808C29.5872 3.52052 29.1373 3.41174 28.5538 3.41174C27.9506 3.41174 18.1603 3.52052 17.8735 3.73808C17.5966 3.94575 17.4285 4.24242 17.3692 4.6281C17.3099 5.02366 17.2802 5.43406 17.2802 5.85929C17.2802 6.27464 17.3099 6.68503 17.3692 7.09049C17.4186 7.36738 17.5571 7.64428 17.7845 7.92117C18.012 8.18818 27.7231 8.37607 28.2275 8.48485L30.2745 8.92986C31.3327 9.15731 32.1683 9.50343 32.7814 9.96821C33.4044 10.433 33.8544 11.0165 34.1313 11.7186C34.4082 12.4108 34.5664 13.2118 34.606 14.1216C34.6158 14.2304 34.6208 14.3738 34.6208 14.5518C34.6208 14.7298 34.6158 14.9227 34.606 15.1303C34.606 15.338 34.5961 15.5358 34.5763 15.7237C34.4774 17.029 34.2203 18.0822 33.8049 18.8832C33.3995 19.6843 32.7715 20.2677 31.9211 20.6336C31.0805 20.9995 29.9581 21.1825 28.5538 21.1825Z" fill="#FF6200"/>
<path d="M19.2086 47.1585C17.0626 47.1585 15.5348 46.7382 14.625 45.8977C13.7152 45.0571 13.2355 43.6578 13.1861 41.6997C13.1762 41.0372 13.1663 40.2807 13.1564 39.4302C13.1465 38.5698 13.1416 37.6699 13.1416 36.7305C13.1416 35.791 13.1465 34.8614 13.1564 33.9417C13.1663 33.0122 13.1762 32.1568 13.1861 31.3755C13.2158 29.724 13.7003 28.4137 14.6398 27.4446C15.5793 26.4656 17.1022 25.9761 19.2086 25.9761C20.5433 25.9761 29.2547 25.2806 31.8506 27.2221C32.7703 28.0429 33.2598 29.3977 33.3191 31.2865C33.329 31.7414 33.334 32.1221 33.334 32.4287C33.3438 32.7254 33.3438 33.0023 33.334 33.2594C33.334 33.5066 33.329 33.7786 33.3191 34.0752H29.1064C29.1163 33.7786 29.1261 33.4967 29.136 33.2297C29.1459 32.9528 29.1509 32.6166 29.1509 32.221C29.1509 31.8255 29.1459 31.2865 29.136 30.6042C29.136 30.2185 28.9778 29.9169 28.6614 29.6993C28.3449 29.4719 19.7426 29.3581 19.2086 29.3581C18.635 29.3581 18.1949 29.4719 17.8884 29.6993C17.5818 29.9169 17.4186 30.2185 17.3989 30.6042C17.3494 31.8799 17.3148 33.2248 17.295 34.6389C17.2851 36.0432 17.2851 37.4277 17.295 38.7923C17.3148 40.1472 17.3494 41.3833 17.3989 42.5008C17.4186 42.8963 17.5818 43.2029 17.8884 43.4205C18.2048 43.638 18.6449 43.7468 19.2086 43.7468C19.7722 43.7468 28.3993 43.638 28.7355 43.4205C29.0718 43.2029 29.2448 42.8963 29.2547 42.5008C29.2745 41.769 29.2794 41.1015 29.2695 40.4982C29.2597 39.8851 29.2547 39.4154 29.2547 39.089H33.4675C33.4675 39.4154 33.4724 39.8505 33.4823 40.3944C33.4922 40.9383 33.4872 41.3734 33.4675 41.6997C33.4081 43.6578 32.8988 45.0571 31.9396 45.8977C29.4721 48.0599 21.2853 47.1585 19.2086 47.1585Z" fill="#FF6200"/>
<path d="M13.1416 72.666V52.0176H27.701C28.2547 52.0176 28.8679 52.0522 29.5403 52.1214C30.2227 52.1807 30.8803 52.3686 31.5132 52.6851C32.1461 52.9917 32.6801 53.5059 33.1152 54.2278C33.5504 54.9497 33.7926 55.9732 33.8421 57.2984C33.852 57.5753 33.8569 57.8225 33.8569 58.04C33.8668 58.2477 33.8718 58.4653 33.8718 58.6927C33.8718 58.9103 33.8718 59.1674 33.8718 59.4641C33.8718 59.7607 33.8619 60.1266 33.8421 60.5618C33.8025 61.8177 33.5553 62.8016 33.1004 63.5137C32.6554 64.2158 32.1214 64.7449 31.4984 65.1009L34.1684 72.666H29.7183L27.5823 65.8425H17.3544V72.666H13.1416ZM17.3544 62.1341H27.701C28.1262 62.1341 28.4773 62.0797 28.7541 61.971C29.031 61.8622 29.2387 61.7089 29.3772 61.5111C29.5255 61.3034 29.6096 61.0562 29.6293 60.7694C29.659 60.4431 29.6788 60.1217 29.6887 59.8052C29.6986 59.4888 29.7035 59.1773 29.7035 58.8707C29.7035 58.5543 29.6936 58.2477 29.6738 57.951C29.6639 57.6445 29.6491 57.3478 29.6293 57.061C29.6096 56.7841 29.5255 56.5468 29.3772 56.349C29.2387 56.1413 29.031 55.9831 28.7541 55.8743C28.4773 55.7557 28.1262 55.6963 27.701 55.6963H17.3544V62.1341Z" fill="#FF6200"/>
<path d="M19.2234 98.5211C17.117 98.5211 15.599 98.1008 14.6695 97.2602C13.7498 96.4196 13.2603 95.0203 13.2009 93.0623C13.1812 92.2712 13.1663 91.4355 13.1564 90.5554C13.1465 89.6654 13.1416 88.7655 13.1416 87.8557C13.1416 86.9459 13.1465 86.0608 13.1564 85.2005C13.1663 84.3302 13.1812 83.5193 13.2009 82.7677C13.2603 80.8196 13.7498 79.4302 14.6695 78.5995C15.599 77.7589 17.117 77.3386 19.2234 77.3386C30.675 77.3386 32.1881 77.7589 33.1078 78.5995C34.0274 79.44 34.5219 80.8394 34.5911 82.7974C34.6109 83.3908 34.6257 84.0237 34.6356 84.6961C34.6554 85.3686 34.6653 86.0658 34.6653 86.7877C34.6752 87.4997 34.6752 88.2166 34.6653 88.9385C34.6653 89.6604 34.6554 90.3675 34.6356 91.0597C34.6257 91.752 34.6109 92.4096 34.5911 93.0326C34.5219 95.0005 34.0274 96.4098 33.1078 97.2602C32.1881 98.1008 30.675 98.5211 19.2234 98.5211ZM19.2234 95.1093C19.8069 95.1093 29.5971 95.0006 29.9037 94.783C30.2102 94.5654 30.3685 94.249 30.3784 93.8336C30.4278 92.8546 30.4575 91.8657 30.4674 90.8669C30.4871 89.8681 30.497 88.8693 30.497 87.8705C30.497 86.8618 30.4871 85.868 30.4674 84.8889C30.4476 83.9 30.4179 82.9359 30.3784 81.9964C30.3685 81.5909 30.2102 81.2844 29.9037 81.0767C29.5971 80.8591 19.8069 80.7504 19.2234 80.7504C18.6597 80.7504 18.2197 80.8591 17.9032 81.0767C17.5966 81.2844 17.4335 81.581 17.4137 81.9667C17.3741 82.9161 17.3395 83.8852 17.3099 84.8741C17.2901 85.863 17.2802 86.8618 17.2802 87.8705C17.2802 88.8693 17.2901 89.8731 17.3099 90.8818C17.3395 91.8805 17.3741 92.8744 17.4137 93.8633C17.4335 94.2589 17.5966 94.5654 17.9032 94.783C18.2197 95.0006 18.6597 95.1093 19.2234 95.1093Z" fill="#FF6200"/>
<path d="M13.1416 123.842V103.194H17.3544V120.164H34.7525V123.842H13.1416Z" fill="#FF6200"/>
<path d="M13.1416 149.163V128.515H17.3544V145.485H34.7525V149.163H13.1416Z" fill="#FF6200"/>
<path d="M12.6943 188.502V167.854H29.0225C31.1487 167.854 32.6914 168.289 33.6506 169.159C34.6198 170.019 35.1241 171.444 35.1637 173.431C35.1835 174.44 35.1933 175.483 35.1933 176.561C35.2032 177.639 35.2032 178.717 35.1933 179.795C35.1933 180.863 35.1835 181.896 35.1637 182.895C35.134 184.23 34.9016 185.308 34.4665 186.129C34.0413 186.95 33.3787 187.553 32.4788 187.939C31.5888 188.314 30.4367 188.502 29.0225 188.502H12.6943ZM16.9071 184.823H29.0225C29.6456 184.823 30.1202 184.7 30.4466 184.453C30.7729 184.196 30.941 183.844 30.9509 183.399C30.9806 182.579 31.0004 181.713 31.0103 180.804C31.0201 179.894 31.0251 178.974 31.0251 178.044C31.0251 177.115 31.0152 176.215 30.9954 175.345C30.9855 174.465 30.9707 173.659 30.9509 172.927C30.941 172.492 30.7729 172.151 30.4466 171.903C30.1202 171.656 29.6456 171.533 29.0225 171.533H16.9071V184.823Z" fill="white"/>
<path d="M18.7761 214.357C16.6698 214.357 15.1518 213.937 14.2222 213.096C13.3025 212.256 12.813 210.857 12.7537 208.898C12.7339 208.107 12.7191 207.272 12.7092 206.392C12.6993 205.502 12.6943 204.602 12.6943 203.692C12.6943 202.782 12.6993 201.897 12.7092 201.037C12.7191 200.166 12.7339 199.355 12.7537 198.604C12.813 196.656 13.3025 195.266 14.2222 194.436C15.1518 193.595 16.6698 193.175 18.7761 193.175C30.2278 193.175 31.7408 193.595 32.6605 194.436C33.5802 195.276 34.0746 196.676 34.1439 198.634C34.1636 199.227 34.1785 199.86 34.1884 200.532C34.2081 201.205 34.218 201.902 34.218 202.624C34.2279 203.336 34.2279 204.053 34.218 204.775C34.218 205.497 34.2081 206.204 34.1884 206.896C34.1785 207.588 34.1636 208.246 34.1439 208.869C34.0746 210.837 33.5802 212.246 32.6605 213.096C31.7408 213.937 30.2278 214.357 18.7761 214.357ZM18.7761 210.946C19.3596 210.946 29.1499 210.837 29.4564 210.619C29.763 210.402 29.9212 210.085 29.9311 209.67C29.9805 208.691 30.0102 207.702 30.0201 206.703C30.0399 205.704 30.0498 204.705 30.0498 203.707C30.0498 202.698 30.0399 201.704 30.0201 200.725C30.0003 199.736 29.9707 198.772 29.9311 197.833C29.9212 197.427 29.763 197.121 29.4564 196.913C29.1499 196.695 19.3596 196.587 18.7761 196.587C18.2125 196.587 17.7724 196.695 17.4559 196.913C17.1494 197.121 16.9862 197.417 16.9664 197.803C16.9269 198.752 16.8923 199.721 16.8626 200.71C16.8428 201.699 16.8329 202.698 16.8329 203.707C16.8329 204.705 16.8428 205.709 16.8626 206.718C16.8923 207.717 16.9269 208.711 16.9664 209.699C16.9862 210.095 17.1494 210.402 17.4559 210.619C17.7724 210.837 18.2125 210.946 18.7761 210.946Z" fill="white"/>
<path d="M14.8897 239.678L12.6943 219.03H16.9368L17.6784 228.731L18.1531 235.999H18.9245V228.731L20.9122 219.148H26.3413L28.329 228.731V235.999H29.1004L29.575 228.731L30.3167 219.03H34.5591L32.3638 239.678H25.4513L24.3833 234.071L23.9976 222.709H23.2559L22.8406 234.071L21.7725 239.678H14.8897Z" fill="white"/>
<path d="M12.6943 265.378V244.351H22.9726L25.8524 251.058L28.6827 261.632H29.924L28.633 253.596L28.0868 244.351H34.8893V265.378H24.1146L21.185 258.58L19.0499 248.067H17.7093L18.901 257.281L19.4968 265.378H12.6943Z" fill="white"/>
<path d="M23.1212 415.728C23.5774 416.184 24.3171 416.184 24.7733 415.728L32.2074 408.294C32.6636 407.838 32.6636 407.098 32.2074 406.642C31.7512 406.186 31.0115 406.186 30.5554 406.642L23.9473 413.25L17.3392 406.642C16.883 406.186 16.1433 406.186 15.6871 406.642C15.2309 407.098 15.2309 407.838 15.6871 408.294L23.1212 415.728ZM23.9473 284.068L22.7791 284.068L22.7791 414.902L23.9473 414.902L25.1154 414.902L25.1154 284.068L23.9473 284.068Z" fill="white"/>
</svg>
