<svg width="140" height="140" viewBox="0 0 140 140" fill="none" xmlns="http://www.w3.org/2000/svg">
<path d="M69.7682 20.4343L66.5485 52.2407C65.783 59.8026 59.8032 65.7824 52.2413 66.5479L20.4349 69.7677L52.2413 72.9874C59.8032 73.7529 65.783 79.7327 66.5485 87.2946L69.7682 119.101L72.988 87.2946C73.7535 79.7327 79.7332 73.7529 87.2952 72.9874L119.102 69.7677L87.2952 66.5479C79.7332 65.7824 73.7535 59.8027 72.988 52.2407L69.7682 20.4343Z" fill="#FF6200"/>
<path d="M104.652 34.8839L79.885 55.0977C73.9966 59.9035 65.5399 59.9035 59.6515 55.0977L34.8843 34.8839L55.0981 59.6511C59.904 65.5395 59.904 73.9962 55.0981 79.8846L34.8843 104.652L59.6515 84.438C65.5399 79.6321 73.9966 79.6321 79.885 84.4379L104.652 104.652L84.4384 79.8846C79.6326 73.9962 79.6326 65.5395 84.4384 59.6511L104.652 34.8839Z" fill="#FF6200"/>
</svg>
