<svg width="191" height="191" viewBox="0 0 191 191" fill="none" xmlns="http://www.w3.org/2000/svg">
<g clip-path="url(#clip0_1209_1631)">
<path d="M191 95.5C191 148.243 148.243 191 95.5 191C42.7568 191 0 148.243 0 95.5C0 42.7568 42.7568 0 95.5 0C148.243 0 191 42.7568 191 95.5ZM35.1261 95.5C35.1261 128.844 62.1564 155.874 95.5 155.874C128.844 155.874 155.874 128.844 155.874 95.5C155.874 62.1564 128.844 35.1261 95.5 35.1261C62.1564 35.1261 35.1261 62.1564 35.1261 95.5Z" fill="#D31F23"/>
<path d="M21.1382 97.2832L21.1292 98.7112L11.7494 98.6525L11.7681 95.6706C11.7838 93.1506 12.9281 91.5198 15.112 91.5334C17.352 91.5474 18.4615 93.2204 18.4464 95.6424L18.4362 97.2663L21.1382 97.2832ZM13.0843 95.6368L13.0743 97.2328L17.1063 97.258L17.1162 95.662C17.1259 94.1221 16.5308 93.0123 15.1028 93.0034C13.7309 92.9948 13.0942 94.0549 13.0843 95.6368ZM12.1963 87.2093L20.2043 88.1583L20.7529 83.5288L22.0598 83.6836L21.4979 88.4245C21.3859 89.3698 20.8565 89.6736 20.064 89.5797L12.0282 88.6273L12.1963 87.2093ZM22.2145 82.8566L14.7692 78.483C13.9742 78.0094 13.7216 77.2458 13.9002 76.4824C14.082 75.7054 14.6473 75.1331 15.5699 75.0615L24.1827 74.4458L23.851 75.8635L21.4591 76.0083L20.4774 80.2646L22.5431 81.4525L22.2145 82.8566ZM15.4589 77.3791L19.299 79.5862L20.1188 76.0828L15.7013 76.3431C15.3927 76.3716 15.2181 76.5032 15.1575 76.7622C15.0937 77.0349 15.1917 77.2304 15.4589 77.3791ZM20.9866 71.0477L15.3488 71.4052L15.8679 69.9702L21.0561 69.7032C21.4113 69.6679 21.6074 69.6197 21.6836 69.4091C21.7598 69.1984 21.6315 69.018 21.3895 68.7816L17.5728 65.2571L18.0966 63.809L22.1915 67.7169C22.6719 68.1587 22.9167 68.6343 22.9665 69.1138L25.7839 70.133L25.2981 71.4758L22.4808 70.4567C22.1488 70.7981 21.6432 71.0023 20.9866 71.0477ZM21.0361 57.5718L21.7077 56.3116L29.9856 60.7231L29.314 61.9833L21.0361 57.5718ZM32.1188 57.2796L31.3647 58.409L24.5417 53.8535C23.8315 53.3793 23.7349 52.6415 24.1314 52.0477C24.4501 51.5703 24.854 51.3687 25.4093 51.4195L33.7375 52.2329C33.8656 52.268 33.9278 52.2758 33.9744 52.2059C34.0055 52.1593 33.99 52.1321 33.9201 52.0855L27.2718 47.6466L28.0258 46.5172L34.8605 51.0805C35.5707 51.5547 35.6323 52.3197 35.2747 52.8553C34.9793 53.2977 34.5365 53.5575 33.9696 53.4989L25.6375 52.6661C25.5288 52.6272 25.4667 52.6194 25.4278 52.6776C25.3812 52.7475 25.4122 52.8019 25.5053 52.864L32.1188 57.2796ZM34.2552 38.942L35.252 39.8013L33.3688 41.9856L39.4763 47.2511L38.5439 48.3327L32.4364 43.0671L30.5623 45.2408L29.5656 44.3815L34.2552 38.942ZM43.5496 43.01L42.5223 43.9611L36.1501 37.0778L38.5438 34.8618C40.0027 33.5113 41.7612 33.1234 43.0737 34.5411C43.9772 35.5171 44.0376 36.7776 43.2621 37.8771C44.0642 37.6306 44.8852 37.9199 46.0372 38.3605L47.8337 39.044L46.7036 40.0902L45.0536 39.4619C43.8913 39.0307 43.0577 38.8104 42.092 39.7044L41.2393 40.4938L43.5496 43.01ZM39.4481 35.818L38.092 37.0734L40.3738 39.5589L41.7197 38.313C42.6032 37.495 42.851 36.4644 42.0806 35.6322C41.2912 34.7795 40.2803 35.0476 39.4481 35.818ZM52.8549 35.6223C50.6177 37.187 47.6852 36.6582 46.1046 34.3981C44.5479 32.1724 45.0687 29.2285 47.2944 27.6719C49.5086 26.1233 52.441 26.6521 53.9977 28.8777C55.5783 31.1378 55.0691 34.0737 52.8549 35.6223ZM52.0766 34.5095C53.5909 33.4504 53.9244 31.3379 52.793 29.7202C51.6777 28.1256 49.5985 27.7175 48.0727 28.7847C46.5468 29.8519 46.1939 31.9609 47.3092 33.5556C48.4405 35.1732 50.5392 35.5847 52.0766 34.5095ZM64.376 23.3024L64.9006 24.448L60.4965 26.4648L59.9719 25.3192L64.376 23.3024ZM74.3352 25.0648L72.9561 25.4352L70.523 16.3763L73.403 15.6028C75.8367 14.9491 77.7128 15.6194 78.2793 17.7287C78.8603 19.892 77.5419 21.4058 75.2028 22.0341L73.6344 22.4553L74.3352 25.0648ZM73.7849 16.8628L72.2435 17.2768L73.2894 21.1708L74.8308 20.7568C76.318 20.3574 77.23 19.4891 76.8596 18.11C76.5038 16.7849 75.3128 16.4525 73.7849 16.8628ZM81.7289 13.7779L82.8944 21.7572L87.5075 21.0834L87.6977 22.3855L82.9738 23.0756C82.0318 23.2132 81.6008 22.7809 81.4855 21.9913L80.3158 13.9843L81.7289 13.7779ZM88.5377 22.3197L90.8252 13.9934C91.0758 13.1026 91.7475 12.6601 92.5311 12.6342C93.3286 12.6077 94.0282 13.0048 94.3372 13.877L97.1709 22.0337L95.7157 22.0819L94.9541 19.8099L90.5889 19.9685L89.9789 22.272L88.5377 22.3197ZM92.0704 14.3724L90.9376 18.6542L94.5336 18.5351L93.1338 14.3371C93.0261 14.0465 92.8536 13.9122 92.5877 13.921C92.3079 13.9303 92.1446 14.0758 92.0704 14.3724ZM99.6034 18.0514L97.7681 12.7087L99.2893 12.8299L100.918 17.763C101.046 18.0962 101.145 18.2725 101.368 18.2903C101.591 18.3081 101.731 18.1367 101.895 17.8408L104.285 13.2281L105.821 13.3505L103.134 18.3328C102.835 18.9129 102.441 19.2747 101.992 19.4496L101.754 22.4361L100.33 22.3226L100.568 19.3361C100.151 19.1063 99.8208 18.6726 99.6034 18.0514ZM112.619 14.5213L114.012 14.8363L111.942 23.9852L110.55 23.6702L112.619 14.5213ZM115.827 25.1345L114.539 24.705L117.134 16.9222C117.404 16.1121 118.09 15.8244 118.768 16.0503C119.312 16.2318 119.613 16.5684 119.71 17.1173L121.122 25.3653C121.122 25.4982 121.131 25.5601 121.21 25.5867C121.263 25.6044 121.286 25.5823 121.312 25.5026L123.841 17.9191L125.129 18.3487L122.53 26.1447C122.259 26.9548 121.538 27.216 120.927 27.0122C120.422 26.8439 120.055 26.4853 119.962 25.923L118.568 17.6662C118.577 17.5511 118.568 17.4891 118.502 17.4669C118.422 17.4404 118.378 17.4846 118.342 17.5909L115.827 25.1345ZM134.088 22.3767L133.52 23.5639L130.918 22.3193L127.438 29.5939L126.15 28.9777L129.63 21.7031L127.041 20.4647L127.609 19.2775L134.088 22.3767ZM132.599 32.414L131.412 31.6713L136.388 23.7198L139.153 25.4502C140.838 26.5048 141.673 28.1005 140.648 29.7383C139.942 30.8658 138.742 31.2539 137.477 30.7932C137.925 31.5028 137.861 32.3709 137.737 33.5981L137.548 35.5108L136.242 34.6939L136.417 32.937C136.529 31.7023 136.523 30.8401 135.408 30.142L134.423 29.5256L132.599 32.414ZM138.467 26.5732L136.9 25.5929L135.098 28.4456L136.653 29.4185C137.674 30.0572 138.733 30.0266 139.335 29.0653C139.951 28.0803 139.428 27.1748 138.467 26.5732ZM142.162 39.4633C140.068 37.7127 139.812 34.7439 141.58 32.6276C143.322 30.5436 146.3 30.2771 148.384 32.0187C150.457 33.7514 150.713 36.7202 148.971 38.8043C147.203 40.9205 144.236 41.196 142.162 39.4633ZM143.033 38.4213C144.451 39.6063 146.578 39.3763 147.843 37.8616C149.091 36.3684 148.942 34.2548 147.513 33.0608C146.084 31.8667 143.956 32.0771 142.708 33.5703C141.443 35.085 141.594 37.2183 143.033 38.4213ZM157.075 47.3337L156.109 48.1427L152.999 44.4288L153.965 43.6199L157.075 47.3337ZM158.006 57.4072L157.289 56.1723L165.4 51.462L166.898 54.0408C168.163 56.22 168.005 58.2059 166.117 59.3027C164.18 60.4275 162.374 59.5492 161.158 57.4548L160.343 56.0504L158.006 57.4072ZM165.781 54.7379L164.98 53.3578L161.493 55.3825L162.294 56.7627C163.068 58.0944 164.144 58.7485 165.378 58.0315C166.565 57.3425 166.575 56.106 165.781 54.7379ZM170.823 61.5387L163.445 64.7932L165.326 69.0587L164.122 69.5898L162.195 65.2219C161.811 64.3508 162.112 63.8201 162.843 63.498L170.246 60.2322L170.823 61.5387ZM164.407 70.3819L173.042 70.4021C173.967 70.41 174.571 70.9419 174.802 71.6912C175.037 72.4538 174.837 73.233 174.077 73.7603L166.951 78.6369L166.522 77.2455L168.514 75.9138L167.215 71.7436L164.832 71.76L164.407 70.3819ZM173.004 71.7032L168.574 71.7348L169.634 75.1733L173.317 72.72C173.569 72.5398 173.653 72.338 173.575 72.0838C173.493 71.8162 173.309 71.6969 173.004 71.7032ZM171.429 79.9473L176.108 76.7827L176.388 78.2828L172.05 81.1417C171.762 81.352 171.617 81.4929 171.658 81.7131C171.699 81.9333 171.901 82.0239 172.23 82.1051L177.306 83.2101L177.588 84.724L172.078 83.4293C171.44 83.2919 170.988 83.0058 170.702 82.6176L167.756 83.1663L167.495 81.7625L170.44 81.2138C170.553 80.7512 170.886 80.319 171.429 79.9473ZM178.23 91.5784L178.291 93.0051L168.92 93.4063L168.859 91.9796L178.23 91.5784ZM168.83 97.4562L168.906 96.1004L177.097 96.5602C177.95 96.6081 178.408 97.1947 178.368 97.9076C178.336 98.4807 178.09 98.8595 177.586 99.0976L169.998 102.626C169.87 102.661 169.813 102.686 169.808 102.769C169.805 102.825 169.832 102.841 169.916 102.846L177.897 103.294L177.821 104.65L169.616 104.189C168.763 104.141 168.322 103.513 168.358 102.87C168.388 102.339 168.637 101.89 169.155 101.653L176.756 98.1396C176.87 98.1179 176.927 98.0931 176.931 98.0232C176.936 97.9393 176.881 97.9082 176.77 97.902L168.83 97.4562ZM176.314 114.328L175.018 114.096L175.528 111.257L167.59 109.833L167.842 108.428L175.78 109.852L176.286 107.027L177.582 107.259L176.314 114.328ZM166.239 115.556L166.641 114.215L175.626 116.908L174.69 120.032C174.119 121.937 172.802 123.164 170.951 122.609C169.677 122.228 168.985 121.173 169.094 119.832C168.528 120.451 167.674 120.619 166.458 120.825L164.563 121.148L165.006 119.673L166.746 119.376C167.966 119.157 168.796 118.924 169.174 117.663L169.508 116.55L166.239 115.556ZM173.425 119.668L173.956 117.898L170.728 116.916L170.201 118.673C169.856 119.826 170.166 120.84 171.252 121.165C172.365 121.499 173.1 120.754 173.425 119.668ZM161.968 126.642C163.105 124.16 165.901 123.131 168.409 124.279C170.878 125.41 171.92 128.212 170.789 130.681C169.664 133.138 166.868 134.167 164.398 133.036C161.891 131.888 160.843 129.099 161.968 126.642ZM163.203 127.207C162.433 128.887 163.215 130.878 165.01 131.7C166.78 132.51 168.779 131.809 169.554 130.116C170.33 128.423 169.566 126.426 167.796 125.615C166.002 124.794 163.984 125.502 163.203 127.207ZM158.265 143.099L157.233 142.376L160.011 138.408L161.044 139.131L158.265 143.099ZM148.79 146.624L149.79 145.605L156.485 152.176L154.396 154.304C152.631 156.102 150.674 156.477 149.115 154.947C147.517 153.378 147.884 151.405 149.581 149.676L150.718 148.517L148.79 146.624ZM153.427 153.412L154.545 152.273L151.668 149.449L150.55 150.588C149.471 151.687 149.126 152.898 150.145 153.898C151.124 154.859 152.319 154.541 153.427 153.412ZM148.161 160.097L143.098 153.82L139.469 156.747L138.643 155.723L142.359 152.726C143.1 152.128 143.691 152.281 144.192 152.902L149.272 159.2L148.161 160.097ZM137.954 156.207L140.232 164.536C140.471 165.43 140.119 166.154 139.458 166.576C138.785 167.005 137.981 167.02 137.27 166.427L130.674 160.856L131.901 160.072L133.714 161.638L137.389 159.276L136.739 156.983L137.954 156.207ZM138.968 164.845L137.759 160.584L134.726 162.521L138.071 165.418C138.312 165.613 138.529 165.641 138.753 165.497C138.989 165.347 139.055 165.138 138.968 164.845ZM130.593 165.52L134.882 169.197L133.509 169.863L129.605 166.435C129.326 166.213 129.152 166.111 128.951 166.208C128.749 166.306 128.715 166.525 128.724 166.863L129 172.051L127.614 172.723L127.406 167.067C127.37 166.415 127.527 165.903 127.826 165.525L126.518 162.83L127.802 162.206L129.11 164.902C129.586 164.889 130.091 165.095 130.593 165.52ZM121.16 175.143L119.8 175.578L116.944 166.643L118.304 166.208L121.16 175.143ZM113.013 167.622L114.342 167.339L116.05 175.363C116.228 176.198 115.782 176.794 115.084 176.943C114.522 177.063 114.092 176.925 113.73 176.501L108.332 170.107C108.265 169.992 108.226 169.944 108.144 169.961C108.089 169.973 108.081 170.003 108.099 170.085L109.763 177.904L108.435 178.187L106.724 170.149C106.546 169.314 107.036 168.723 107.666 168.589C108.186 168.478 108.684 168.601 109.049 169.038L114.436 175.449C114.487 175.553 114.526 175.602 114.595 175.587C114.677 175.57 114.693 175.509 114.669 175.399L113.013 167.622ZM98.6795 179.261L98.5662 177.95L101.439 177.701L100.745 169.667L102.168 169.544L102.862 177.578L105.721 177.331L105.835 178.642L98.6795 179.261ZM94.8677 169.858L96.2673 169.895L96.0209 179.272L92.76 179.186C90.7727 179.134 89.2432 178.183 89.2939 176.252C89.3288 174.923 90.1659 173.978 91.4888 173.733C90.7426 173.349 90.357 172.569 89.8402 171.449L89.0317 169.705L90.5712 169.745L91.3134 171.347C91.8442 172.468 92.2869 173.208 93.6024 173.242L94.764 173.273L94.8677 169.858ZM92.7806 177.87L94.628 177.919L94.7306 174.546L92.8972 174.498C91.6936 174.467 90.7965 175.031 90.7667 176.165C90.7362 177.326 91.647 177.84 92.7806 177.87ZM83.0472 168.652C85.7415 169.092 87.473 171.517 87.0281 174.239C86.5901 176.919 84.1628 178.665 81.4823 178.227C78.8157 177.791 77.0842 175.366 77.5223 172.685C77.9671 169.963 80.3806 168.216 83.0472 168.652ZM82.8282 169.992C81.0044 169.694 79.2914 170.974 78.973 172.922C78.6591 174.843 79.8638 176.586 81.7014 176.886C83.539 177.187 85.2635 175.922 85.5774 174.002C85.8958 172.054 84.6796 170.294 82.8282 169.992ZM75.0123 167.127L76.3787 167.542L73.6537 176.518L70.8003 175.652C68.389 174.919 67.1511 173.358 67.7855 171.269C68.4363 169.125 70.3558 168.538 72.6733 169.241L74.2273 169.713L75.0123 167.127ZM71.1424 174.38L72.6696 174.844L73.8409 170.986L72.3138 170.522C70.8402 170.075 69.607 170.329 69.1921 171.696C68.7936 173.009 69.6287 173.92 71.1424 174.38ZM62.772 172.801L65.999 165.41L61.7265 163.545L62.2531 162.339L66.6282 164.249C67.5007 164.63 67.6382 165.225 67.3189 165.956L64.0807 173.372L62.772 172.801ZM61.5056 161.951L55.1661 167.814C54.4829 168.438 53.6788 168.459 52.9997 168.067C52.3084 167.669 51.9241 166.962 52.1222 166.058L54.0233 157.635L55.2845 158.363L54.7315 160.694L58.5221 162.865L60.2566 161.231L61.5056 161.951ZM54.3088 166.834L57.532 163.797L54.4153 161.999L53.3872 166.303C53.3251 166.606 53.4007 166.812 53.6311 166.945C53.8737 167.085 54.0891 167.047 54.3088 166.834ZM49.848 159.717L48.566 165.218L47.3414 164.308L48.5805 159.263C48.6491 158.912 48.6595 158.711 48.4797 158.577C48.3 158.444 48.0902 158.514 47.7941 158.678L43.3194 161.317L42.0836 160.398L47.0057 157.603C47.5671 157.271 48.0931 157.173 48.5667 157.264L50.3543 154.859L51.5003 155.711L49.7126 158.116C49.9439 158.532 49.9938 159.075 49.848 159.717ZM36.9665 155.806L35.9511 154.802L42.5466 148.133L43.562 149.137L36.9665 155.806ZM39.8571 145.104L40.7237 146.149L34.4075 151.385C33.75 151.93 33.0153 151.811 32.5597 151.262C32.1934 150.82 32.1157 150.375 32.3232 149.857L35.484 142.11C35.5542 141.997 35.5794 141.94 35.5258 141.875C35.4901 141.832 35.4596 141.839 35.3949 141.892L29.2404 146.994L28.3737 145.948L34.7008 140.704C35.3582 140.159 36.1089 140.319 36.5199 140.814C36.8594 141.224 36.9818 141.723 36.7635 142.249L33.583 149.995C33.5146 150.088 33.4893 150.146 33.534 150.199C33.5876 150.264 33.6486 150.25 33.7348 150.178L39.8571 145.104ZM22.8958 137.815L24.0041 137.105L25.5591 139.534L32.3505 135.186L33.1205 136.389L26.3291 140.737L27.8766 143.154L26.7682 143.864L22.8958 137.815ZM29.4537 130.069L30.0699 131.326L21.6474 135.455L20.2116 132.526C19.3366 130.741 19.4697 128.945 21.2044 128.095C22.3987 127.509 23.6235 127.813 24.4541 128.872C24.4482 128.033 24.9609 127.329 25.7137 126.352L26.884 124.827L27.5618 126.21L26.4864 127.61C25.7398 128.6 25.2895 129.335 25.8687 130.517L26.3802 131.56L29.4537 130.069ZM21.3871 131.934L22.2005 133.594L25.2363 132.121L24.429 130.474C23.899 129.393 22.9828 128.86 21.9646 129.359C20.9212 129.871 20.888 130.916 21.3871 131.934ZM25.052 119.034C25.9065 121.627 24.556 124.283 21.9365 125.146C19.357 125.997 16.6875 124.65 15.8375 122.071C14.9918 119.505 16.3423 116.848 18.9218 115.998C21.5412 115.135 24.2063 116.468 25.052 119.034ZM23.7622 119.459C23.1838 117.704 21.2567 116.777 19.3819 117.395C17.5337 118.004 16.5444 119.877 17.1272 121.646C17.71 123.414 19.6282 124.359 21.4764 123.75C23.3512 123.132 24.3494 121.241 23.7622 119.459ZM16.5809 104.446L17.8292 104.275L18.487 109.074L17.2386 109.246L16.5809 104.446Z" fill="#FAFAFA"/>
<path d="M116.849 88.4985C122.384 91.6103 122.384 99.3897 116.849 102.502L89.4528 117.905C83.9182 121.017 77 117.127 77 110.903L77 80.0967C77 73.8731 83.9182 69.9834 89.4528 73.0952L116.849 88.4985Z" fill="#D31F23"/>
</g>
<defs>
<clipPath id="clip0_1209_1631">
<rect width="191" height="191" fill="white"/>
</clipPath>
</defs>
</svg>
