<svg width="1883" height="1087" viewBox="0 0 1883 1087" fill="none" xmlns="http://www.w3.org/2000/svg">
<mask id="path-1-inside-1_3349_5091" fill="white">
<path d="M254.666 22C254.666 34.1503 264.516 44 276.666 44H1606C1618.15 44 1628 34.1503 1628 22C1628 9.84974 1637.85 0 1650 0H1828C1858.19 0 1882.67 24.4751 1882.67 54.6667V254C1882.67 272.042 1868.04 286.667 1850 286.667C1831.96 286.667 1817.33 301.292 1817.33 319.333V768.667C1817.33 786.708 1831.96 801.333 1850 801.333C1868.04 801.333 1882.67 815.958 1882.67 834V1032C1882.67 1062.19 1858.19 1086.67 1828 1086.67H54.6666C24.4751 1086.67 0 1062.19 0 1032V829.333C0 813.869 12.536 801.333 28 801.333C43.464 801.333 56 788.797 56 773.333V314.667C56 299.203 43.464 286.667 28 286.667C12.536 286.667 0 274.131 0 258.667V54.6667C0 24.4751 24.4751 0 54.6667 0H232.666C244.816 0 254.666 9.84974 254.666 22Z"/>
</mask>
<path d="M276.666 44V45.3333H1606V44V42.6667H276.666V44ZM1650 0V1.33333H1828V0V-1.33333H1650V0ZM1882.67 54.6667H1881.33V254H1882.67H1884V54.6667H1882.67ZM1817.33 319.333H1816V768.667H1817.33H1818.67V319.333H1817.33ZM1882.67 834H1881.33V1032H1882.67H1884V834H1882.67ZM1828 1086.67V1085.33H54.6666V1086.67V1088H1828V1086.67ZM0 1032H1.33333V829.333H0H-1.33333V1032H0ZM56 773.333H57.3333V314.667H56H54.6667V773.333H56ZM0 258.667H1.33333V54.6667H0H-1.33333V258.667H0ZM54.6667 0V1.33333H232.666V0V-1.33333H54.6667V0ZM232.666 0V1.33333C244.08 1.33333 253.333 10.5861 253.333 22H254.666H255.999C255.999 9.11336 245.553 -1.33333 232.666 -1.33333V0ZM0 54.6667H1.33333C1.33333 25.2115 25.2115 1.33333 54.6667 1.33333V0V-1.33333C23.7387 -1.33333 -1.33333 23.7387 -1.33333 54.6667H0ZM28 286.667V285.334C13.2724 285.334 1.33333 273.395 1.33333 258.667H0H-1.33333C-1.33333 274.867 11.7996 288 28 288V286.667ZM56 314.667H57.3333C57.3333 298.467 44.2004 285.334 28 285.334V286.667V288C42.7276 288 54.6667 299.939 54.6667 314.667H56ZM28 801.333V802.666C44.2004 802.666 57.3333 789.533 57.3333 773.333H56H54.6667C54.6667 788.061 42.7276 800 28 800V801.333ZM0 829.333H1.33333C1.33333 814.605 13.2724 802.666 28 802.666V801.333V800C11.7996 800 -1.33333 813.133 -1.33333 829.333H0ZM54.6666 1086.67V1085.33C25.2114 1085.33 1.33333 1061.46 1.33333 1032H0H-1.33333C-1.33333 1062.93 23.7387 1088 54.6666 1088V1086.67ZM1882.67 1032H1881.33C1881.33 1061.46 1857.45 1085.33 1828 1085.33V1086.67V1088C1858.93 1088 1884 1062.93 1884 1032H1882.67ZM1850 801.333V802.666C1867.3 802.666 1881.33 816.695 1881.33 834H1882.67H1884C1884 815.222 1868.78 800 1850 800V801.333ZM1817.33 768.667H1816C1816 787.444 1831.22 802.666 1850 802.666V801.333V800C1832.69 800 1818.67 785.971 1818.67 768.667H1817.33ZM1850 286.667V285.334C1831.22 285.334 1816 300.556 1816 319.333H1817.33H1818.67C1818.67 302.029 1832.69 288 1850 288V286.667ZM1882.67 254H1881.33C1881.33 271.305 1867.3 285.334 1850 285.334V286.667V288C1868.78 288 1884 272.778 1884 254H1882.67ZM1828 0V1.33333C1857.45 1.33333 1881.33 25.2115 1881.33 54.6667H1882.67H1884C1884 23.7387 1858.93 -1.33333 1828 -1.33333V0ZM1628 22H1629.33C1629.33 10.5861 1638.59 1.33333 1650 1.33333V0V-1.33333C1637.11 -1.33333 1626.67 9.11336 1626.67 22H1628ZM1606 44V45.3333C1618.89 45.3333 1629.33 34.8866 1629.33 22H1628H1626.67C1626.67 33.4139 1617.41 42.6667 1606 42.6667V44ZM276.666 44V42.6667C265.252 42.6667 255.999 33.4139 255.999 22H254.666H253.333C253.333 34.8866 263.779 45.3333 276.666 45.3333V44Z" fill="#FF6200" mask="url(#path-1-inside-1_3349_5091)"/>
</svg>
